<svg width="96" height="96" viewBox="0 0 96 96" fill="none" xmlns="http://www.w3.org/2000/svg">
<path d="M50.2849 64H13.7134C12.4512 64 11.4277 65.0234 11.4277 66.2857V73.1429C11.4277 79.1451 21.7759 82.2857 31.9992 82.2857C42.2224 82.2857 52.5706 79.1451 52.5706 73.1429V66.2857C52.5706 65.0234 51.5472 64 50.2849 64Z" fill="url(#paint0_linear_55_508)"/>
<g filter="url(#filter0_bi_55_508)">
<path d="M31.9992 57.1431C21.7759 57.1431 11.4277 60.2837 11.4277 66.2859C11.4277 72.2882 21.7759 75.4288 31.9992 75.4288C42.2224 75.4288 52.5706 72.2882 52.5706 66.2859C52.5706 60.2837 42.2224 57.1431 31.9992 57.1431Z" fill="url(#paint1_linear_55_508)" fill-opacity="0.2"/>
<path d="M12.0277 66.2859C12.0277 63.6844 14.2766 61.5407 18.1013 60.0213C21.8753 58.522 26.9378 57.7431 31.9992 57.7431C37.0605 57.7431 42.123 58.522 45.8971 60.0213C49.7217 61.5407 51.9706 63.6844 51.9706 66.2859C51.9706 68.8874 49.7217 71.0312 45.8971 72.5506C42.123 74.0499 37.0605 74.8288 31.9992 74.8288C26.9378 74.8288 21.8753 74.0499 18.1013 72.5506C14.2766 71.0312 12.0277 68.8874 12.0277 66.2859Z" stroke="url(#paint2_linear_55_508)" stroke-opacity="0.1" stroke-width="1.2"/>
</g>
<path d="M50.2849 52.5713H13.7134C12.4512 52.5713 11.4277 53.5947 11.4277 54.857V61.7141C11.4277 67.7164 21.7759 70.857 31.9992 70.857C42.2224 70.857 52.5706 67.7164 52.5706 61.7141V54.857C52.5706 53.5947 51.5472 52.5713 50.2849 52.5713Z" fill="url(#paint3_linear_55_508)"/>
<g filter="url(#filter1_bi_55_508)">
<path d="M31.9992 45.7144C21.7759 45.7144 11.4277 48.855 11.4277 54.8572C11.4277 60.8595 21.7759 64.0001 31.9992 64.0001C42.2224 64.0001 52.5706 60.8595 52.5706 54.8572C52.5706 48.855 42.2224 45.7144 31.9992 45.7144Z" fill="url(#paint4_linear_55_508)" fill-opacity="0.2"/>
<path d="M12.0277 54.8572C12.0277 52.2557 14.2766 50.112 18.1013 48.5926C21.8753 47.0932 26.9378 46.3144 31.9992 46.3144C37.0605 46.3144 42.123 47.0932 45.8971 48.5926C49.7217 50.112 51.9706 52.2557 51.9706 54.8572C51.9706 57.4587 49.7217 59.6024 45.8971 61.1219C42.123 62.6212 37.0605 63.4001 31.9992 63.4001C26.9378 63.4001 21.8753 62.6212 18.1013 61.1219C14.2766 59.6024 12.0277 57.4587 12.0277 54.8572Z" stroke="url(#paint5_linear_55_508)" stroke-opacity="0.1" stroke-width="1.2"/>
</g>
<path d="M50.2849 41.1431H13.7134C12.4512 41.1431 11.4277 42.1665 11.4277 43.4288V50.2859C11.4277 56.2882 21.7759 59.4288 31.9992 59.4288C42.2224 59.4288 52.5706 56.2882 52.5706 50.2859V43.4288C52.5706 42.1665 51.5472 41.1431 50.2849 41.1431Z" fill="url(#paint6_linear_55_508)"/>
<g filter="url(#filter2_bi_55_508)">
<path d="M31.9992 34.2856C21.7759 34.2856 11.4277 37.4263 11.4277 43.4285C11.4277 49.4307 21.7759 52.5714 31.9992 52.5714C42.2224 52.5714 52.5706 49.4307 52.5706 43.4285C52.5706 37.4263 42.2224 34.2856 31.9992 34.2856Z" fill="url(#paint7_linear_55_508)" fill-opacity="0.2"/>
<path d="M12.0277 43.4285C12.0277 40.827 14.2766 38.6833 18.1013 37.1638C21.8753 35.6645 26.9378 34.8856 31.9992 34.8856C37.0605 34.8856 42.123 35.6645 45.8971 37.1638C49.7217 38.6833 51.9706 40.827 51.9706 43.4285C51.9706 46.03 49.7217 48.1737 45.8971 49.6932C42.123 51.1925 37.0605 51.9714 31.9992 51.9714C26.9378 51.9714 21.8753 51.1925 18.1013 49.6932C14.2766 48.1737 12.0277 46.03 12.0277 43.4285Z" stroke="url(#paint8_linear_55_508)" stroke-opacity="0.1" stroke-width="1.2"/>
</g>
<path d="M50.2849 29.7144H13.7134C12.4512 29.7144 11.4277 30.7378 11.4277 32.0001V38.8572C11.4277 44.8595 21.7759 48.0001 31.9992 48.0001C42.2224 48.0001 52.5706 44.8595 52.5706 38.8572V32.0001C52.5706 30.7378 51.5472 29.7144 50.2849 29.7144Z" fill="url(#paint9_linear_55_508)"/>
<g filter="url(#filter3_bi_55_508)">
<path d="M31.9992 22.8569C21.7759 22.8569 11.4277 25.9976 11.4277 31.9998C11.4277 38.002 21.7759 41.1426 31.9992 41.1426C42.2224 41.1426 52.5706 38.002 52.5706 31.9998C52.5706 25.9976 42.2224 22.8569 31.9992 22.8569Z" fill="url(#paint10_linear_55_508)" fill-opacity="0.2"/>
<path d="M12.0277 31.9998C12.0277 29.3983 14.2766 27.2546 18.1013 25.7351C21.8753 24.2358 26.9378 23.4569 31.9992 23.4569C37.0605 23.4569 42.123 24.2358 45.8971 25.7351C49.7217 27.2546 51.9706 29.3983 51.9706 31.9998C51.9706 34.6013 49.7217 36.745 45.8971 38.2645C42.123 39.7638 37.0605 40.5426 31.9992 40.5426C26.9378 40.5426 21.8753 39.7638 18.1013 38.2645C14.2766 36.745 12.0277 34.6013 12.0277 31.9998Z" stroke="url(#paint11_linear_55_508)" stroke-opacity="0.1" stroke-width="1.2"/>
</g>
<path d="M50.2849 18.2856H13.7134C12.4512 18.2856 11.4277 19.3091 11.4277 20.5714V27.4285C11.4277 33.4307 21.7759 36.5714 31.9992 36.5714C42.2224 36.5714 52.5706 33.4307 52.5706 27.4285V20.5714C52.5706 19.3091 51.5472 18.2856 50.2849 18.2856Z" fill="url(#paint12_linear_55_508)"/>
<g filter="url(#filter4_bi_55_508)">
<path d="M31.9992 11.4287C21.7759 11.4287 11.4277 14.5693 11.4277 20.5716C11.4277 26.5738 21.7759 29.7144 31.9992 29.7144C42.2224 29.7144 52.5706 26.5738 52.5706 20.5716C52.5706 14.5693 42.2224 11.4287 31.9992 11.4287Z" fill="url(#paint13_linear_55_508)" fill-opacity="0.2"/>
<path d="M12.0277 20.5716C12.0277 17.97 14.2766 15.8263 18.1013 14.3069C21.8753 12.8076 26.9378 12.0287 31.9992 12.0287C37.0605 12.0287 42.123 12.8076 45.8971 14.3069C49.7217 15.8263 51.9706 17.97 51.9706 20.5716C51.9706 23.1731 49.7217 25.3168 45.8971 26.8362C42.123 28.3355 37.0605 29.1144 31.9992 29.1144C26.9378 29.1144 21.8753 28.3355 18.1013 26.8362C14.2766 25.3168 12.0277 23.1731 12.0277 20.5716Z" stroke="url(#paint14_linear_55_508)" stroke-opacity="0.1" stroke-width="1.2"/>
</g>
<path d="M50.2849 6.85693H13.7134C12.4512 6.85693 11.4277 7.88036 11.4277 9.14265V15.9998C11.4277 22.002 21.7759 25.1426 31.9992 25.1426C42.2224 25.1426 52.5706 22.002 52.5706 15.9998V9.14265C52.5706 7.88036 51.5472 6.85693 50.2849 6.85693Z" fill="url(#paint15_linear_55_508)"/>
<g filter="url(#filter5_bi_55_508)">
<path d="M31.9992 0C21.7759 0 11.4277 3.14062 11.4277 9.14286C11.4277 15.1451 21.7759 18.2857 31.9992 18.2857C42.2224 18.2857 52.5706 15.1451 52.5706 9.14286C52.5706 3.14062 42.2224 0 31.9992 0Z" fill="url(#paint16_linear_55_508)" fill-opacity="0.2"/>
<path d="M12.0277 9.14286C12.0277 6.54133 14.2766 4.39762 18.1013 2.8782C21.8753 1.37888 26.9378 0.6 31.9992 0.6C37.0605 0.6 42.123 1.37888 45.8971 2.8782C49.7217 4.39762 51.9706 6.54133 51.9706 9.14286C51.9706 11.7444 49.7217 13.8881 45.8971 15.4075C42.123 16.9068 37.0605 17.6857 31.9992 17.6857C26.9378 17.6857 21.8753 16.9068 18.1013 15.4075C14.2766 13.8881 12.0277 11.7444 12.0277 9.14286Z" stroke="url(#paint17_linear_55_508)" stroke-opacity="0.1" stroke-width="1.2"/>
</g>
<path d="M82.2849 77.7144H45.7134C44.4512 77.7144 43.4277 78.7378 43.4277 80.0001V86.8572C43.4277 92.8595 53.7759 96.0001 63.9992 96.0001C74.2224 96.0001 84.5706 92.8595 84.5706 86.8572V80.0001C84.5706 78.7378 83.5472 77.7144 82.2849 77.7144Z" fill="url(#paint18_linear_55_508)"/>
<g filter="url(#filter6_bi_55_508)">
<path d="M63.9992 70.8569C53.7759 70.8569 43.4277 73.9976 43.4277 79.9998C43.4277 86.002 53.7759 89.1426 63.9992 89.1426C74.2224 89.1426 84.5706 86.002 84.5706 79.9998C84.5706 73.9976 74.2224 70.8569 63.9992 70.8569Z" fill="url(#paint19_linear_55_508)" fill-opacity="0.2"/>
<path d="M44.0277 79.9998C44.0277 77.3983 46.2766 75.2546 50.1013 73.7351C53.8753 72.2358 58.9378 71.4569 63.9992 71.4569C69.0605 71.4569 74.123 72.2358 77.8971 73.7351C81.7217 75.2546 83.9706 77.3983 83.9706 79.9998C83.9706 82.6013 81.7217 84.745 77.8971 86.2645C74.123 87.7638 69.0605 88.5426 63.9992 88.5426C58.9378 88.5426 53.8753 87.7638 50.1013 86.2645C46.2766 84.745 44.0277 82.6013 44.0277 79.9998Z" stroke="url(#paint20_linear_55_508)" stroke-opacity="0.1" stroke-width="1.2"/>
</g>
<path d="M82.2849 66.2856H45.7134C44.4512 66.2856 43.4277 67.3091 43.4277 68.5714V75.4285C43.4277 81.4307 53.7759 84.5714 63.9992 84.5714C74.2224 84.5714 84.5706 81.4307 84.5706 75.4285V68.5714C84.5706 67.3091 83.5472 66.2856 82.2849 66.2856Z" fill="url(#paint21_linear_55_508)"/>
<g filter="url(#filter7_bi_55_508)">
<path d="M63.9992 59.4287C53.7759 59.4287 43.4277 62.5693 43.4277 68.5716C43.4277 74.5738 53.7759 77.7144 63.9992 77.7144C74.2224 77.7144 84.5706 74.5738 84.5706 68.5716C84.5706 62.5693 74.2224 59.4287 63.9992 59.4287Z" fill="url(#paint22_linear_55_508)" fill-opacity="0.2"/>
<path d="M44.0277 68.5716C44.0277 65.97 46.2766 63.8263 50.1013 62.3069C53.8753 60.8076 58.9378 60.0287 63.9992 60.0287C69.0605 60.0287 74.123 60.8076 77.8971 62.3069C81.7217 63.8263 83.9706 65.97 83.9706 68.5716C83.9706 71.1731 81.7217 73.3168 77.8971 74.8362C74.123 76.3355 69.0605 77.1144 63.9992 77.1144C58.9378 77.1144 53.8753 76.3355 50.1013 74.8362C46.2766 73.3168 44.0277 71.1731 44.0277 68.5716Z" stroke="url(#paint23_linear_55_508)" stroke-opacity="0.1" stroke-width="1.2"/>
</g>
<path d="M82.2849 54.8569H45.7134C44.4512 54.8569 43.4277 55.8804 43.4277 57.1426V63.9998C43.4277 70.002 53.7759 73.1426 63.9992 73.1426C74.2224 73.1426 84.5706 70.002 84.5706 63.9998V57.1426C84.5706 55.8804 83.5472 54.8569 82.2849 54.8569Z" fill="url(#paint24_linear_55_508)"/>
<g filter="url(#filter8_bi_55_508)">
<path d="M63.9992 48C53.7759 48 43.4277 51.1406 43.4277 57.1429C43.4277 63.1451 53.7759 66.2857 63.9992 66.2857C74.2224 66.2857 84.5706 63.1451 84.5706 57.1429C84.5706 51.1406 74.2224 48 63.9992 48Z" fill="url(#paint25_linear_55_508)" fill-opacity="0.2"/>
<path d="M44.0277 57.1429C44.0277 54.5413 46.2766 52.3976 50.1013 50.8782C53.8753 49.3789 58.9378 48.6 63.9992 48.6C69.0605 48.6 74.123 49.3789 77.8971 50.8782C81.7217 52.3976 83.9706 54.5413 83.9706 57.1429C83.9706 59.7444 81.7217 61.8881 77.8971 63.4075C74.123 64.9068 69.0605 65.6857 63.9992 65.6857C58.9378 65.6857 53.8753 64.9068 50.1013 63.4075C46.2766 61.8881 44.0277 59.7444 44.0277 57.1429Z" stroke="url(#paint26_linear_55_508)" stroke-opacity="0.1" stroke-width="1.2"/>
</g>
<path d="M82.2849 43.4287H45.7134C44.4512 43.4287 43.4277 44.4521 43.4277 45.7144V52.5716C43.4277 58.5738 53.7759 61.7144 63.9992 61.7144C74.2224 61.7144 84.5706 58.5738 84.5706 52.5716V45.7144C84.5706 44.4521 83.5472 43.4287 82.2849 43.4287Z" fill="url(#paint27_linear_55_508)"/>
<g filter="url(#filter9_bi_55_508)">
<path d="M63.9992 36.5713C53.7759 36.5713 43.4277 39.7119 43.4277 45.7141C43.4277 51.7164 53.7759 54.857 63.9992 54.857C74.2224 54.857 84.5706 51.7164 84.5706 45.7141C84.5706 39.7119 74.2224 36.5713 63.9992 36.5713Z" fill="url(#paint28_linear_55_508)" fill-opacity="0.2"/>
<path d="M44.0277 45.7141C44.0277 43.1126 46.2766 40.9689 50.1013 39.4495C53.8753 37.9502 58.9378 37.1713 63.9992 37.1713C69.0605 37.1713 74.123 37.9502 77.8971 39.4495C81.7217 40.9689 83.9706 43.1126 83.9706 45.7141C83.9706 48.3157 81.7217 50.4594 77.8971 51.9788C74.123 53.4781 69.0605 54.257 63.9992 54.257C58.9378 54.257 53.8753 53.4781 50.1013 51.9788C46.2766 50.4594 44.0277 48.3157 44.0277 45.7141Z" stroke="url(#paint29_linear_55_508)" stroke-opacity="0.1" stroke-width="1.2"/>
</g>
<path d="M82.2849 32H45.7134C44.4512 32 43.4277 33.0234 43.4277 34.2857V41.1429C43.4277 47.1451 53.7759 50.2857 63.9992 50.2857C74.2224 50.2857 84.5706 47.1451 84.5706 41.1429V34.2857C84.5706 33.0234 83.5472 32 82.2849 32Z" fill="url(#paint30_linear_55_508)"/>
<g filter="url(#filter10_bi_55_508)">
<path d="M63.9992 25.1431C53.7759 25.1431 43.4277 28.2837 43.4277 34.2859C43.4277 40.2882 53.7759 43.4288 63.9992 43.4288C74.2224 43.4288 84.5706 40.2882 84.5706 34.2859C84.5706 28.2837 74.2224 25.1431 63.9992 25.1431Z" fill="url(#paint31_linear_55_508)" fill-opacity="0.2"/>
<path d="M44.0277 34.2859C44.0277 31.6844 46.2766 29.5407 50.1013 28.0213C53.8753 26.522 58.9378 25.7431 63.9992 25.7431C69.0605 25.7431 74.123 26.522 77.8971 28.0213C81.7217 29.5407 83.9706 31.6844 83.9706 34.2859C83.9706 36.8874 81.7217 39.0312 77.8971 40.5506C74.123 42.0499 69.0605 42.8288 63.9992 42.8288C58.9378 42.8288 53.8753 42.0499 50.1013 40.5506C46.2766 39.0312 44.0277 36.8874 44.0277 34.2859Z" stroke="url(#paint32_linear_55_508)" stroke-opacity="0.1" stroke-width="1.2"/>
</g>
<path d="M82.2849 20.5713H45.7134C44.4512 20.5713 43.4277 21.5947 43.4277 22.857V29.7141C43.4277 35.7164 53.7759 38.857 63.9992 38.857C74.2224 38.857 84.5706 35.7164 84.5706 29.7141V22.857C84.5706 21.5947 83.5472 20.5713 82.2849 20.5713Z" fill="url(#paint33_linear_55_508)"/>
<g filter="url(#filter11_bi_55_508)">
<path d="M63.9992 13.7144C53.7759 13.7144 43.4277 16.855 43.4277 22.8572C43.4277 28.8595 53.7759 32.0001 63.9992 32.0001C74.2224 32.0001 84.5706 28.8595 84.5706 22.8572C84.5706 16.855 74.2224 13.7144 63.9992 13.7144Z" fill="url(#paint34_linear_55_508)" fill-opacity="0.2"/>
<path d="M44.0277 22.8572C44.0277 20.2557 46.2766 18.112 50.1013 16.5926C53.8753 15.0932 58.9378 14.3144 63.9992 14.3144C69.0605 14.3144 74.123 15.0932 77.8971 16.5926C81.7217 18.112 83.9706 20.2557 83.9706 22.8572C83.9706 25.4587 81.7217 27.6024 77.8971 29.1219C74.123 30.6212 69.0605 31.4001 63.9992 31.4001C58.9378 31.4001 53.8753 30.6212 50.1013 29.1219C46.2766 27.6024 44.0277 25.4587 44.0277 22.8572Z" stroke="url(#paint35_linear_55_508)" stroke-opacity="0.1" stroke-width="1.2"/>
</g>
<defs>
<filter id="filter0_bi_55_508" x="-12.5723" y="33.1431" width="89.1428" height="66.2857" filterUnits="userSpaceOnUse" color-interpolation-filters="sRGB">
<feFlood flood-opacity="0" result="BackgroundImageFix"/>
<feGaussianBlur in="BackgroundImageFix" stdDeviation="12"/>
<feComposite in2="SourceAlpha" operator="in" result="effect1_backgroundBlur_55_508"/>
<feBlend mode="normal" in="SourceGraphic" in2="effect1_backgroundBlur_55_508" result="shape"/>
<feColorMatrix in="SourceAlpha" type="matrix" values="0 0 0 0 0 0 0 0 0 0 0 0 0 0 0 0 0 0 127 0" result="hardAlpha"/>
<feOffset dy="8"/>
<feGaussianBlur stdDeviation="6"/>
<feComposite in2="hardAlpha" operator="arithmetic" k2="-1" k3="1"/>
<feColorMatrix type="matrix" values="0 0 0 0 1 0 0 0 0 1 0 0 0 0 1 0 0 0 0.4 0"/>
<feBlend mode="normal" in2="shape" result="effect2_innerShadow_55_508"/>
</filter>
<filter id="filter1_bi_55_508" x="-12.5723" y="21.7144" width="89.1428" height="66.2857" filterUnits="userSpaceOnUse" color-interpolation-filters="sRGB">
<feFlood flood-opacity="0" result="BackgroundImageFix"/>
<feGaussianBlur in="BackgroundImageFix" stdDeviation="12"/>
<feComposite in2="SourceAlpha" operator="in" result="effect1_backgroundBlur_55_508"/>
<feBlend mode="normal" in="SourceGraphic" in2="effect1_backgroundBlur_55_508" result="shape"/>
<feColorMatrix in="SourceAlpha" type="matrix" values="0 0 0 0 0 0 0 0 0 0 0 0 0 0 0 0 0 0 127 0" result="hardAlpha"/>
<feOffset dy="8"/>
<feGaussianBlur stdDeviation="6"/>
<feComposite in2="hardAlpha" operator="arithmetic" k2="-1" k3="1"/>
<feColorMatrix type="matrix" values="0 0 0 0 1 0 0 0 0 1 0 0 0 0 1 0 0 0 0.4 0"/>
<feBlend mode="normal" in2="shape" result="effect2_innerShadow_55_508"/>
</filter>
<filter id="filter2_bi_55_508" x="-12.5723" y="10.2856" width="89.1428" height="66.2857" filterUnits="userSpaceOnUse" color-interpolation-filters="sRGB">
<feFlood flood-opacity="0" result="BackgroundImageFix"/>
<feGaussianBlur in="BackgroundImageFix" stdDeviation="12"/>
<feComposite in2="SourceAlpha" operator="in" result="effect1_backgroundBlur_55_508"/>
<feBlend mode="normal" in="SourceGraphic" in2="effect1_backgroundBlur_55_508" result="shape"/>
<feColorMatrix in="SourceAlpha" type="matrix" values="0 0 0 0 0 0 0 0 0 0 0 0 0 0 0 0 0 0 127 0" result="hardAlpha"/>
<feOffset dy="8"/>
<feGaussianBlur stdDeviation="6"/>
<feComposite in2="hardAlpha" operator="arithmetic" k2="-1" k3="1"/>
<feColorMatrix type="matrix" values="0 0 0 0 1 0 0 0 0 1 0 0 0 0 1 0 0 0 0.4 0"/>
<feBlend mode="normal" in2="shape" result="effect2_innerShadow_55_508"/>
</filter>
<filter id="filter3_bi_55_508" x="-12.5723" y="-1.14307" width="89.1428" height="66.2857" filterUnits="userSpaceOnUse" color-interpolation-filters="sRGB">
<feFlood flood-opacity="0" result="BackgroundImageFix"/>
<feGaussianBlur in="BackgroundImageFix" stdDeviation="12"/>
<feComposite in2="SourceAlpha" operator="in" result="effect1_backgroundBlur_55_508"/>
<feBlend mode="normal" in="SourceGraphic" in2="effect1_backgroundBlur_55_508" result="shape"/>
<feColorMatrix in="SourceAlpha" type="matrix" values="0 0 0 0 0 0 0 0 0 0 0 0 0 0 0 0 0 0 127 0" result="hardAlpha"/>
<feOffset dy="8"/>
<feGaussianBlur stdDeviation="6"/>
<feComposite in2="hardAlpha" operator="arithmetic" k2="-1" k3="1"/>
<feColorMatrix type="matrix" values="0 0 0 0 1 0 0 0 0 1 0 0 0 0 1 0 0 0 0.4 0"/>
<feBlend mode="normal" in2="shape" result="effect2_innerShadow_55_508"/>
</filter>
<filter id="filter4_bi_55_508" x="-12.5723" y="-12.5713" width="89.1428" height="66.2857" filterUnits="userSpaceOnUse" color-interpolation-filters="sRGB">
<feFlood flood-opacity="0" result="BackgroundImageFix"/>
<feGaussianBlur in="BackgroundImageFix" stdDeviation="12"/>
<feComposite in2="SourceAlpha" operator="in" result="effect1_backgroundBlur_55_508"/>
<feBlend mode="normal" in="SourceGraphic" in2="effect1_backgroundBlur_55_508" result="shape"/>
<feColorMatrix in="SourceAlpha" type="matrix" values="0 0 0 0 0 0 0 0 0 0 0 0 0 0 0 0 0 0 127 0" result="hardAlpha"/>
<feOffset dy="8"/>
<feGaussianBlur stdDeviation="6"/>
<feComposite in2="hardAlpha" operator="arithmetic" k2="-1" k3="1"/>
<feColorMatrix type="matrix" values="0 0 0 0 1 0 0 0 0 1 0 0 0 0 1 0 0 0 0.4 0"/>
<feBlend mode="normal" in2="shape" result="effect2_innerShadow_55_508"/>
</filter>
<filter id="filter5_bi_55_508" x="-12.5723" y="-24" width="89.1428" height="66.2857" filterUnits="userSpaceOnUse" color-interpolation-filters="sRGB">
<feFlood flood-opacity="0" result="BackgroundImageFix"/>
<feGaussianBlur in="BackgroundImageFix" stdDeviation="12"/>
<feComposite in2="SourceAlpha" operator="in" result="effect1_backgroundBlur_55_508"/>
<feBlend mode="normal" in="SourceGraphic" in2="effect1_backgroundBlur_55_508" result="shape"/>
<feColorMatrix in="SourceAlpha" type="matrix" values="0 0 0 0 0 0 0 0 0 0 0 0 0 0 0 0 0 0 127 0" result="hardAlpha"/>
<feOffset dy="8"/>
<feGaussianBlur stdDeviation="6"/>
<feComposite in2="hardAlpha" operator="arithmetic" k2="-1" k3="1"/>
<feColorMatrix type="matrix" values="0 0 0 0 1 0 0 0 0 1 0 0 0 0 1 0 0 0 0.4 0"/>
<feBlend mode="normal" in2="shape" result="effect2_innerShadow_55_508"/>
</filter>
<filter id="filter6_bi_55_508" x="19.4277" y="46.8569" width="89.1428" height="66.2857" filterUnits="userSpaceOnUse" color-interpolation-filters="sRGB">
<feFlood flood-opacity="0" result="BackgroundImageFix"/>
<feGaussianBlur in="BackgroundImageFix" stdDeviation="12"/>
<feComposite in2="SourceAlpha" operator="in" result="effect1_backgroundBlur_55_508"/>
<feBlend mode="normal" in="SourceGraphic" in2="effect1_backgroundBlur_55_508" result="shape"/>
<feColorMatrix in="SourceAlpha" type="matrix" values="0 0 0 0 0 0 0 0 0 0 0 0 0 0 0 0 0 0 127 0" result="hardAlpha"/>
<feOffset dy="8"/>
<feGaussianBlur stdDeviation="6"/>
<feComposite in2="hardAlpha" operator="arithmetic" k2="-1" k3="1"/>
<feColorMatrix type="matrix" values="0 0 0 0 1 0 0 0 0 1 0 0 0 0 1 0 0 0 0.4 0"/>
<feBlend mode="normal" in2="shape" result="effect2_innerShadow_55_508"/>
</filter>
<filter id="filter7_bi_55_508" x="19.4277" y="35.4287" width="89.1428" height="66.2857" filterUnits="userSpaceOnUse" color-interpolation-filters="sRGB">
<feFlood flood-opacity="0" result="BackgroundImageFix"/>
<feGaussianBlur in="BackgroundImageFix" stdDeviation="12"/>
<feComposite in2="SourceAlpha" operator="in" result="effect1_backgroundBlur_55_508"/>
<feBlend mode="normal" in="SourceGraphic" in2="effect1_backgroundBlur_55_508" result="shape"/>
<feColorMatrix in="SourceAlpha" type="matrix" values="0 0 0 0 0 0 0 0 0 0 0 0 0 0 0 0 0 0 127 0" result="hardAlpha"/>
<feOffset dy="8"/>
<feGaussianBlur stdDeviation="6"/>
<feComposite in2="hardAlpha" operator="arithmetic" k2="-1" k3="1"/>
<feColorMatrix type="matrix" values="0 0 0 0 1 0 0 0 0 1 0 0 0 0 1 0 0 0 0.4 0"/>
<feBlend mode="normal" in2="shape" result="effect2_innerShadow_55_508"/>
</filter>
<filter id="filter8_bi_55_508" x="19.4277" y="24" width="89.1428" height="66.2857" filterUnits="userSpaceOnUse" color-interpolation-filters="sRGB">
<feFlood flood-opacity="0" result="BackgroundImageFix"/>
<feGaussianBlur in="BackgroundImageFix" stdDeviation="12"/>
<feComposite in2="SourceAlpha" operator="in" result="effect1_backgroundBlur_55_508"/>
<feBlend mode="normal" in="SourceGraphic" in2="effect1_backgroundBlur_55_508" result="shape"/>
<feColorMatrix in="SourceAlpha" type="matrix" values="0 0 0 0 0 0 0 0 0 0 0 0 0 0 0 0 0 0 127 0" result="hardAlpha"/>
<feOffset dy="8"/>
<feGaussianBlur stdDeviation="6"/>
<feComposite in2="hardAlpha" operator="arithmetic" k2="-1" k3="1"/>
<feColorMatrix type="matrix" values="0 0 0 0 1 0 0 0 0 1 0 0 0 0 1 0 0 0 0.4 0"/>
<feBlend mode="normal" in2="shape" result="effect2_innerShadow_55_508"/>
</filter>
<filter id="filter9_bi_55_508" x="19.4277" y="12.5713" width="89.1428" height="66.2857" filterUnits="userSpaceOnUse" color-interpolation-filters="sRGB">
<feFlood flood-opacity="0" result="BackgroundImageFix"/>
<feGaussianBlur in="BackgroundImageFix" stdDeviation="12"/>
<feComposite in2="SourceAlpha" operator="in" result="effect1_backgroundBlur_55_508"/>
<feBlend mode="normal" in="SourceGraphic" in2="effect1_backgroundBlur_55_508" result="shape"/>
<feColorMatrix in="SourceAlpha" type="matrix" values="0 0 0 0 0 0 0 0 0 0 0 0 0 0 0 0 0 0 127 0" result="hardAlpha"/>
<feOffset dy="8"/>
<feGaussianBlur stdDeviation="6"/>
<feComposite in2="hardAlpha" operator="arithmetic" k2="-1" k3="1"/>
<feColorMatrix type="matrix" values="0 0 0 0 1 0 0 0 0 1 0 0 0 0 1 0 0 0 0.4 0"/>
<feBlend mode="normal" in2="shape" result="effect2_innerShadow_55_508"/>
</filter>
<filter id="filter10_bi_55_508" x="19.4277" y="1.14307" width="89.1428" height="66.2857" filterUnits="userSpaceOnUse" color-interpolation-filters="sRGB">
<feFlood flood-opacity="0" result="BackgroundImageFix"/>
<feGaussianBlur in="BackgroundImageFix" stdDeviation="12"/>
<feComposite in2="SourceAlpha" operator="in" result="effect1_backgroundBlur_55_508"/>
<feBlend mode="normal" in="SourceGraphic" in2="effect1_backgroundBlur_55_508" result="shape"/>
<feColorMatrix in="SourceAlpha" type="matrix" values="0 0 0 0 0 0 0 0 0 0 0 0 0 0 0 0 0 0 127 0" result="hardAlpha"/>
<feOffset dy="8"/>
<feGaussianBlur stdDeviation="6"/>
<feComposite in2="hardAlpha" operator="arithmetic" k2="-1" k3="1"/>
<feColorMatrix type="matrix" values="0 0 0 0 1 0 0 0 0 1 0 0 0 0 1 0 0 0 0.4 0"/>
<feBlend mode="normal" in2="shape" result="effect2_innerShadow_55_508"/>
</filter>
<filter id="filter11_bi_55_508" x="19.4277" y="-10.2856" width="89.1428" height="66.2857" filterUnits="userSpaceOnUse" color-interpolation-filters="sRGB">
<feFlood flood-opacity="0" result="BackgroundImageFix"/>
<feGaussianBlur in="BackgroundImageFix" stdDeviation="12"/>
<feComposite in2="SourceAlpha" operator="in" result="effect1_backgroundBlur_55_508"/>
<feBlend mode="normal" in="SourceGraphic" in2="effect1_backgroundBlur_55_508" result="shape"/>
<feColorMatrix in="SourceAlpha" type="matrix" values="0 0 0 0 0 0 0 0 0 0 0 0 0 0 0 0 0 0 127 0" result="hardAlpha"/>
<feOffset dy="8"/>
<feGaussianBlur stdDeviation="6"/>
<feComposite in2="hardAlpha" operator="arithmetic" k2="-1" k3="1"/>
<feColorMatrix type="matrix" values="0 0 0 0 1 0 0 0 0 1 0 0 0 0 1 0 0 0 0.4 0"/>
<feBlend mode="normal" in2="shape" result="effect2_innerShadow_55_508"/>
</filter>
<linearGradient id="paint0_linear_55_508" x1="11.4277" y1="64" x2="50.3223" y2="86.2211" gradientUnits="userSpaceOnUse">
<stop stop-color="white"/>
<stop offset="0.51" stop-color="#FF8000"/>
</linearGradient>
<linearGradient id="paint1_linear_55_508" x1="11.4277" y1="57.1431" x2="50.3223" y2="79.3642" gradientUnits="userSpaceOnUse">
<stop stop-color="#FFE2A7"/>
<stop offset="1" stop-color="#FF6A00"/>
</linearGradient>
<linearGradient id="paint2_linear_55_508" x1="12.7134" y1="57.9742" x2="52.5706" y2="57.9742" gradientUnits="userSpaceOnUse">
<stop stop-color="#FFA166"/>
<stop offset="1" stop-color="#FFD580"/>
</linearGradient>
<linearGradient id="paint3_linear_55_508" x1="11.4277" y1="52.5713" x2="50.3223" y2="74.7924" gradientUnits="userSpaceOnUse">
<stop stop-color="white"/>
<stop offset="0.51" stop-color="#FF8000"/>
</linearGradient>
<linearGradient id="paint4_linear_55_508" x1="11.4277" y1="45.7144" x2="50.3223" y2="67.9354" gradientUnits="userSpaceOnUse">
<stop stop-color="#FFE2A7"/>
<stop offset="1" stop-color="#FF6A00"/>
</linearGradient>
<linearGradient id="paint5_linear_55_508" x1="12.7134" y1="46.5455" x2="52.5706" y2="46.5455" gradientUnits="userSpaceOnUse">
<stop stop-color="#FFA166"/>
<stop offset="1" stop-color="#FFD580"/>
</linearGradient>
<linearGradient id="paint6_linear_55_508" x1="11.4277" y1="41.1431" x2="50.3223" y2="63.3642" gradientUnits="userSpaceOnUse">
<stop stop-color="white"/>
<stop offset="0.51" stop-color="#FF8000"/>
</linearGradient>
<linearGradient id="paint7_linear_55_508" x1="11.4277" y1="34.2856" x2="50.3223" y2="56.5067" gradientUnits="userSpaceOnUse">
<stop stop-color="#FFE2A7"/>
<stop offset="1" stop-color="#FF6A00"/>
</linearGradient>
<linearGradient id="paint8_linear_55_508" x1="12.7134" y1="35.1168" x2="52.5706" y2="35.1168" gradientUnits="userSpaceOnUse">
<stop stop-color="#FFA166"/>
<stop offset="1" stop-color="#FFD580"/>
</linearGradient>
<linearGradient id="paint9_linear_55_508" x1="11.4277" y1="29.7144" x2="50.3223" y2="51.9354" gradientUnits="userSpaceOnUse">
<stop stop-color="white"/>
<stop offset="0.51" stop-color="#FF8000"/>
</linearGradient>
<linearGradient id="paint10_linear_55_508" x1="11.4277" y1="22.8569" x2="50.3223" y2="45.078" gradientUnits="userSpaceOnUse">
<stop stop-color="#FFE2A7"/>
<stop offset="1" stop-color="#FF6A00"/>
</linearGradient>
<linearGradient id="paint11_linear_55_508" x1="12.7134" y1="23.6881" x2="52.5706" y2="23.6881" gradientUnits="userSpaceOnUse">
<stop stop-color="#FFA166"/>
<stop offset="1" stop-color="#FFD580"/>
</linearGradient>
<linearGradient id="paint12_linear_55_508" x1="11.4277" y1="18.2856" x2="50.3223" y2="40.5067" gradientUnits="userSpaceOnUse">
<stop stop-color="white"/>
<stop offset="0.51" stop-color="#FF8000"/>
</linearGradient>
<linearGradient id="paint13_linear_55_508" x1="11.4277" y1="11.4287" x2="50.3223" y2="33.6498" gradientUnits="userSpaceOnUse">
<stop stop-color="#FFE2A7"/>
<stop offset="1" stop-color="#FF6A00"/>
</linearGradient>
<linearGradient id="paint14_linear_55_508" x1="12.7134" y1="12.2599" x2="52.5706" y2="12.2599" gradientUnits="userSpaceOnUse">
<stop stop-color="#FFA166"/>
<stop offset="1" stop-color="#FFD580"/>
</linearGradient>
<linearGradient id="paint15_linear_55_508" x1="11.4277" y1="6.85693" x2="50.3223" y2="29.078" gradientUnits="userSpaceOnUse">
<stop stop-color="white"/>
<stop offset="0.51" stop-color="#FF8000"/>
</linearGradient>
<linearGradient id="paint16_linear_55_508" x1="11.4277" y1="0" x2="50.3223" y2="22.2211" gradientUnits="userSpaceOnUse">
<stop stop-color="#FFE2A7"/>
<stop offset="1" stop-color="#FF6A00"/>
</linearGradient>
<linearGradient id="paint17_linear_55_508" x1="12.7134" y1="0.831169" x2="52.5706" y2="0.83117" gradientUnits="userSpaceOnUse">
<stop stop-color="#FFA166"/>
<stop offset="1" stop-color="#FFD580"/>
</linearGradient>
<linearGradient id="paint18_linear_55_508" x1="43.4277" y1="77.7144" x2="82.3223" y2="99.9354" gradientUnits="userSpaceOnUse">
<stop stop-color="white"/>
<stop offset="0.51" stop-color="#FF8000"/>
</linearGradient>
<linearGradient id="paint19_linear_55_508" x1="43.4277" y1="70.8569" x2="82.3223" y2="93.078" gradientUnits="userSpaceOnUse">
<stop stop-color="#FFE2A7"/>
<stop offset="1" stop-color="#FF6A00"/>
</linearGradient>
<linearGradient id="paint20_linear_55_508" x1="44.7134" y1="71.6881" x2="84.5706" y2="71.6881" gradientUnits="userSpaceOnUse">
<stop stop-color="#FFA166"/>
<stop offset="1" stop-color="#FFD580"/>
</linearGradient>
<linearGradient id="paint21_linear_55_508" x1="43.4277" y1="66.2856" x2="82.3223" y2="88.5067" gradientUnits="userSpaceOnUse">
<stop stop-color="white"/>
<stop offset="0.51" stop-color="#FF8000"/>
</linearGradient>
<linearGradient id="paint22_linear_55_508" x1="43.4277" y1="59.4287" x2="82.3223" y2="81.6498" gradientUnits="userSpaceOnUse">
<stop stop-color="#FFE2A7"/>
<stop offset="1" stop-color="#FF6A00"/>
</linearGradient>
<linearGradient id="paint23_linear_55_508" x1="44.7134" y1="60.2599" x2="84.5706" y2="60.2599" gradientUnits="userSpaceOnUse">
<stop stop-color="#FFA166"/>
<stop offset="1" stop-color="#FFD580"/>
</linearGradient>
<linearGradient id="paint24_linear_55_508" x1="43.4277" y1="54.8569" x2="82.3223" y2="77.078" gradientUnits="userSpaceOnUse">
<stop stop-color="white"/>
<stop offset="0.51" stop-color="#FF8000"/>
</linearGradient>
<linearGradient id="paint25_linear_55_508" x1="43.4277" y1="48" x2="82.3223" y2="70.2211" gradientUnits="userSpaceOnUse">
<stop stop-color="#FFE2A7"/>
<stop offset="1" stop-color="#FF6A00"/>
</linearGradient>
<linearGradient id="paint26_linear_55_508" x1="44.7134" y1="48.8312" x2="84.5706" y2="48.8312" gradientUnits="userSpaceOnUse">
<stop stop-color="#FFA166"/>
<stop offset="1" stop-color="#FFD580"/>
</linearGradient>
<linearGradient id="paint27_linear_55_508" x1="43.4277" y1="43.4287" x2="82.3223" y2="65.6498" gradientUnits="userSpaceOnUse">
<stop stop-color="white"/>
<stop offset="0.51" stop-color="#FF8000"/>
</linearGradient>
<linearGradient id="paint28_linear_55_508" x1="43.4277" y1="36.5713" x2="82.3223" y2="58.7924" gradientUnits="userSpaceOnUse">
<stop stop-color="#FFE2A7"/>
<stop offset="1" stop-color="#FF6A00"/>
</linearGradient>
<linearGradient id="paint29_linear_55_508" x1="44.7134" y1="37.4025" x2="84.5706" y2="37.4025" gradientUnits="userSpaceOnUse">
<stop stop-color="#FFA166"/>
<stop offset="1" stop-color="#FFD580"/>
</linearGradient>
<linearGradient id="paint30_linear_55_508" x1="43.4277" y1="32" x2="82.3223" y2="54.2211" gradientUnits="userSpaceOnUse">
<stop stop-color="white"/>
<stop offset="0.51" stop-color="#FF8000"/>
</linearGradient>
<linearGradient id="paint31_linear_55_508" x1="43.4277" y1="25.1431" x2="82.3223" y2="47.3642" gradientUnits="userSpaceOnUse">
<stop stop-color="#FFE2A7"/>
<stop offset="1" stop-color="#FF6A00"/>
</linearGradient>
<linearGradient id="paint32_linear_55_508" x1="44.7134" y1="25.9742" x2="84.5706" y2="25.9742" gradientUnits="userSpaceOnUse">
<stop stop-color="#FFA166"/>
<stop offset="1" stop-color="#FFD580"/>
</linearGradient>
<linearGradient id="paint33_linear_55_508" x1="43.4277" y1="20.5713" x2="82.3223" y2="42.7924" gradientUnits="userSpaceOnUse">
<stop stop-color="white"/>
<stop offset="0.51" stop-color="#FF8000"/>
</linearGradient>
<linearGradient id="paint34_linear_55_508" x1="43.4277" y1="13.7144" x2="82.3223" y2="35.9354" gradientUnits="userSpaceOnUse">
<stop stop-color="#FFE2A7"/>
<stop offset="1" stop-color="#FF6A00"/>
</linearGradient>
<linearGradient id="paint35_linear_55_508" x1="44.7134" y1="14.5455" x2="84.5706" y2="14.5455" gradientUnits="userSpaceOnUse">
<stop stop-color="#FFA166"/>
<stop offset="1" stop-color="#FFD580"/>
</linearGradient>
</defs>
</svg>
